<svg width="462" height="394" viewBox="0 0 462 394" fill="none" xmlns="http://www.w3.org/2000/svg">
<path d="M158.666 223.2C169.466 223.2 179.199 225.867 187.866 231.2C196.532 236.4 203.266 243.667 208.066 253C212.999 262.2 215.466 272.6 215.466 284.2C215.466 297.4 212.599 309.933 206.866 321.8C201.132 333.533 190.932 345.4 176.266 357.4C161.599 369.533 141.332 381.667 115.466 393.8L108.266 380.6C133.732 365 151.799 350.267 162.466 336.4C173.266 322.4 178.666 307.533 178.666 291.8C178.666 283.533 177.466 275.867 175.066 268.8C172.666 261.6 169.066 255.867 164.266 251.6C159.466 247.2 153.599 245 146.666 245C133.199 245 126.466 254.267 126.466 272.8C126.466 284.933 129.599 295 135.866 303C142.266 311 150.332 317 160.066 321L151.466 335C140.399 335 130.132 332.733 120.666 328.2C111.332 323.533 103.866 317.333 98.2656 309.6C92.6656 301.733 89.8656 293.133 89.8656 283.8C89.8656 273.8 93.199 264.133 99.8656 254.8C106.532 245.333 115.199 237.733 125.866 232C136.666 226.133 147.599 223.2 158.666 223.2ZM311.4 223.2C322.2 223.2 331.933 225.867 340.6 231.2C349.267 236.4 356 243.667 360.8 253C365.733 262.2 368.2 272.6 368.2 284.2C368.2 297.4 365.333 309.933 359.6 321.8C353.867 333.533 343.667 345.4 329 357.4C314.333 369.533 294.067 381.667 268.2 393.8L261 380.6C286.467 365 304.533 350.267 315.2 336.4C326 322.4 331.4 307.533 331.4 291.8C331.4 283.533 330.2 275.867 327.8 268.8C325.4 261.6 321.8 255.867 317 251.6C312.2 247.2 306.333 245 299.4 245C285.933 245 279.2 254.267 279.2 272.8C279.2 284.933 282.333 295 288.6 303C295 311 303.067 317 312.8 321L304.2 335C293.133 335 282.867 332.733 273.4 328.2C264.067 323.533 256.6 317.333 251 309.6C245.4 301.733 242.6 293.133 242.6 283.8C242.6 273.8 245.933 264.133 252.6 254.8C259.267 245.333 267.933 237.733 278.6 232C289.4 226.133 300.333 223.2 311.4 223.2Z" fill="#FFAD94"/>
<ellipse cx="156" cy="288" rx="49" ry="48" fill="#FFAD94"/>
<ellipse cx="302" cy="288" rx="49" ry="48" fill="#FFAD94"/>
</svg>
