<svg width="1953" height="318" viewBox="0 0 1953 318" fill="none" xmlns="http://www.w3.org/2000/svg">
<path d="M0 3H880V318H0V3Z" fill="#FF531D"/>
<rect x="660" y="124" width="41.7071" height="140.079" rx="20.8535" fill="white"/>
<rect x="767" y="52" width="42" height="171" rx="21" transform="rotate(90 767 52)" fill="white"/>
<rect x="370" y="125" width="41.7071" height="140.079" rx="20.8535" fill="white"/>
<path d="M501.395 149.512C496.394 140.472 485.442 136.575 475.855 140.425C464.486 144.99 459.647 158.451 465.505 169.21L510.8 252.388C516.315 262.516 529.023 266.218 539.114 260.635C549.159 255.079 552.797 242.432 547.24 232.387L501.395 149.512Z" fill="white"/>
<path d="M482.419 134C470.59 134 461 143.59 461 155.419C461 168.921 473.34 179.055 486.583 176.43L501.99 173.376C510.602 171.669 517.074 164.515 517.912 155.775C519.031 144.101 509.853 134 498.125 134H494.5H482.419Z" fill="white"/>
<path d="M485.055 52C492.721 52 499.769 56.2058 503.409 62.9524C510.904 76.8462 500.842 93.7071 485.055 93.7071H390.854C379.336 93.7071 370 84.3706 370 72.8535C370 61.3364 379.336 52 390.854 52H485.055Z" fill="white"/>
<path d="M539.746 114C539.746 148.242 519.749 181.528 479 177C456.5 174.5 474.019 161.453 485 140C489.232 131.733 505.5 140 505.5 114C505.5 88.0005 484.203 97.6317 482 91.5C421.754 91.5 456.038 52.0002 483.246 52.0002C517.211 52.0002 539.746 79.7586 539.746 114Z" fill="white"/>
<rect x="157.252" y="128.092" width="41.7071" height="140.079" rx="20.8535" transform="rotate(28.9507 157.252 128.092)" fill="white"/>
<rect width="41.7071" height="227.209" rx="20.8535" transform="matrix(-0.894485 0.447099 0.447099 0.894485 229.306 51.9998)" fill="white"/>
<circle cx="209" cy="207" r="23" fill="white"/>
<path d="M998.24 271V75H1083.08C1100.63 75 1115.75 77.8933 1128.44 83.68C1141.13 89.28 1150.93 97.4 1157.84 108.04C1164.75 118.68 1168.2 131.373 1168.2 146.12C1168.2 160.68 1164.75 173.28 1157.84 183.92C1150.93 194.56 1141.13 202.773 1128.44 208.56C1115.75 214.16 1100.63 216.96 1083.08 216.96H1023.44L1043.6 196.52V271H998.24ZM1043.6 201.56L1023.44 180H1080.56C1094.56 180 1105.01 177.013 1111.92 171.04C1118.83 165.067 1122.28 156.76 1122.28 146.12C1122.28 135.293 1118.83 126.893 1111.92 120.92C1105.01 114.947 1094.56 111.96 1080.56 111.96H1023.44L1043.6 90.4V201.56ZM1200.58 271V75H1245.94V234.04H1344.22V271H1200.58ZM1344.9 271L1432.26 75H1477.06L1564.7 271H1517.1L1445.42 97.96H1463.34L1391.38 271H1344.9ZM1388.58 229L1400.62 194.56H1501.42L1513.74 229H1388.58ZM1676.1 274.36C1660.98 274.36 1646.89 271.933 1633.82 267.08C1620.94 262.04 1609.74 254.947 1600.22 245.8C1590.7 236.653 1583.24 225.92 1577.82 213.6C1572.6 201.28 1569.98 187.747 1569.98 173C1569.98 158.253 1572.6 144.72 1577.82 132.4C1583.24 120.08 1590.7 109.347 1600.22 100.2C1609.93 91.0533 1621.22 84.0533 1634.1 79.2C1646.98 74.16 1661.08 71.64 1676.38 71.64C1693.37 71.64 1708.68 74.6267 1722.3 80.6C1736.12 86.3867 1747.69 94.9733 1757.02 106.36L1727.9 133.24C1721.18 125.587 1713.72 119.893 1705.5 116.16C1697.29 112.24 1688.33 110.28 1678.62 110.28C1669.48 110.28 1661.08 111.773 1653.42 114.76C1645.77 117.747 1639.14 122.04 1633.54 127.64C1627.94 133.24 1623.56 139.867 1620.38 147.52C1617.4 155.173 1615.9 163.667 1615.9 173C1615.9 182.333 1617.4 190.827 1620.38 198.48C1623.56 206.133 1627.94 212.76 1633.54 218.36C1639.14 223.96 1645.77 228.253 1653.42 231.24C1661.08 234.227 1669.48 235.72 1678.62 235.72C1688.33 235.72 1697.29 233.853 1705.5 230.12C1713.72 226.2 1721.18 220.32 1727.9 212.48L1757.02 239.36C1747.69 250.747 1736.12 259.427 1722.3 265.4C1708.68 271.373 1693.28 274.36 1676.1 274.36ZM1829.37 153.96H1923.73V189.24H1829.37V153.96ZM1832.73 234.6H1939.41V271H1787.65V75H1935.77V111.4H1832.73V234.6Z" fill="#252525"/>
</svg>
