<svg width="54" height="81" viewBox="0 0 54 81" fill="none" xmlns="http://www.w3.org/2000/svg">
<path d="M5.81248 0.166504H51.1875V15.3923L29.6898 30.4468C36.2569 30.7686 42.4384 33.6435 46.9159 38.4583C51.3934 43.2731 53.8125 49.6468 53.6573 56.22C53.5021 62.7931 50.7848 69.0455 46.0851 73.6437C41.3853 78.2418 35.075 80.8217 28.5 80.8332H25.9791C19.2935 80.8332 12.8816 78.1773 8.15416 73.4498C3.42668 68.7223 0.770813 62.3105 0.770813 55.6248H10.8541C10.8541 59.6362 12.4477 63.4833 15.2842 66.3198C18.1206 69.1563 21.9677 70.7498 25.9791 70.7498H28.5C32.5114 70.7498 36.3585 69.1563 39.195 66.3198C42.0315 63.4833 43.625 59.6362 43.625 55.6248C43.625 51.6134 42.0315 47.7663 39.195 44.9298C36.3585 42.0934 32.5114 40.4998 28.5 40.4998H15.8958V27.7948L40.9529 10.2498H5.81248V0.166504Z" fill="#505063"/>
</svg>
