<svg width="46" height="79" viewBox="0 0 46 79" fill="none" xmlns="http://www.w3.org/2000/svg">
<path d="M0.083313 23.6667C0.083313 17.5888 2.49774 11.7598 6.79545 7.46214C11.0932 3.16443 16.9221 0.75 23 0.75H27.5833V1.20833C38.0425 3.33042 45.9166 12.5796 45.9166 23.6667V23.9646C45.9166 30.9542 42.7679 37.5771 37.3412 41.9817L9.24998 64.8067V69.5H45.9166V78.6667H0.083313V64.8067C0.0835709 63.4438 0.387733 62.0981 0.973659 60.8675C1.55958 59.637 2.41253 58.5526 3.4704 57.6933L31.5616 34.8683C33.1827 33.5509 34.4896 31.8886 35.3871 30.0024C36.2847 28.1161 36.7503 26.0535 36.75 23.9646V23.6667C36.75 20.0199 35.3013 16.5226 32.7227 13.9439C30.1441 11.3653 26.6467 9.91667 23 9.91667C19.3533 9.91667 15.8559 11.3653 13.2773 13.9439C10.6986 16.5226 9.24998 20.0199 9.24998 23.6667V28.25H0.083313V23.6667Z" fill="#505063"/>
</svg>
